<svg xmlns="http://www.w3.org/2000/svg" viewBox="0 0 64 64" width="64" height="64"><rect width="64" height="64" fill="#707070"/><path d="M31.656779661016948 5.0V6.525423728813557Q29.0635593220339 6.601694915254235 27.728813559322035 7.09745762711864Q26.39406779661017 7.593220338983045 25.936440677966104 8.92796610169491Q25.478813559322035 10.262711864406775 25.478813559322035 13.084745762711862V50.91525423728814Q25.478813559322035 53.66101694915254 25.936440677966104 55.03389830508475Q26.39406779661017 56.40677966101695 27.728813559322035 56.82627118644068Q29.0635593220339 57.24576271186441 31.656779661016948 57.24576271186441H37.224576271186436Q40.809322033898304 57.24576271186441 43.059322033898304 56.483050847457626Q45.309322033898304 55.720338983050844 46.64406779661017 54.08050847457627Q47.978813559322035 52.440677966101696 48.66525423728814 49.69491525423729Q49.351694915254235 46.94915254237288 49.733050847457626 42.983050847457626H51.487288135593225Q51.25847457627119 45.347457627118644 51.25847457627119 49.23728813559322Q51.25847457627119 50.686440677966104 51.37288135593221 53.39406779661017Q51.487288135593225 56.101694915254235 51.79237288135593 59.0Q47.902542372881356 58.847457627118644 43.021186440677965 58.809322033898304Q38.139830508474574 58.771186440677965 34.32627118644068 58.771186440677965Q32.64830508474576 58.771186440677965 30.01694915254237 58.771186440677965Q27.385593220338983 58.771186440677965 24.334745762711865 58.809322033898304Q21.283898305084747 58.847457627118644 18.156779661016948 58.88559322033898Q15.029661016949152 58.92372881355932 12.207627118644066 59.0V57.47457627118644Q14.800847457627118 57.32203389830509 16.135593220338983 56.86440677966102Q17.470338983050844 56.40677966101695 17.927966101694913 55.03389830508475Q18.385593220338983 53.66101694915254 18.385593220338983 50.91525423728814V13.084745762711862Q18.385593220338983 10.262711864406775 17.927966101694913 8.92796610169491Q17.470338983050844 7.593220338983045 16.135593220338983 7.09745762711864Q14.800847457627118 6.601694915254235 12.207627118644066 6.525423728813557V5.0Q13.809322033898304 5.076271186440671 16.402542372881356 5.152542372881349Q18.99576271186441 5.2288135593220275 21.970338983050844 5.2288135593220275Q24.639830508474574 5.2288135593220275 27.271186440677965 5.152542372881349Q29.902542372881356 5.076271186440671 31.656779661016948 5.0Z" fill="#F0F0F0"/></svg>