<svg xmlns="http://www.w3.org/2000/svg" viewBox="0 0 724.67 96" width="724" height="96"><path d="M47.49152542372882 19.999999999999993V21.581920903954796Q44.80225988700565 21.66101694915254 43.4180790960452 22.17514124293785Q42.03389830508475 22.689265536723163 41.559322033898304 24.073446327683612Q41.08474576271186 25.457627118644062 41.08474576271186 28.38418079096045V67.61581920903954Q41.08474576271186 70.46327683615819 41.559322033898304 71.88700564971751Q42.03389830508475 73.31073446327683 43.4180790960452 73.7457627118644Q44.80225988700565 74.18079096045197 47.49152542372882 74.18079096045197H53.26553672316385Q56.98305084745763 74.18079096045197 59.31638418079096 73.38983050847457Q61.6497175141243 72.59887005649718 63.03389830508475 70.89830508474577Q64.4180790960452 69.19774011299435 65.12994350282486 66.35028248587571Q65.84180790960453 63.50282485875706 66.23728813559322 59.389830508474574H68.05649717514125Q67.81920903954803 61.84180790960452 67.81920903954803 65.87570621468926Q67.81920903954803 67.37853107344633 67.93785310734464 70.18644067796609Q68.05649717514125 72.99435028248587 68.37288135593221 76.0Q64.33898305084746 75.84180790960453 59.2768361581921 75.80225988700565Q54.21468926553673 75.76271186440678 50.259887005649716 75.76271186440678Q48.51977401129943 75.76271186440678 45.7909604519774 75.76271186440678Q43.06214689265537 75.76271186440678 39.898305084745765 75.80225988700565Q36.73446327683616 75.84180790960453 33.49152542372882 75.88135593220339Q30.24858757062147 75.92090395480226 27.322033898305087 76.0V74.4180790960452Q30.01129943502825 74.25988700564972 31.395480225988702 73.78531073446328Q32.779661016949156 73.31073446327683 33.2542372881356 71.88700564971751Q33.728813559322035 70.46327683615819 33.728813559322035 67.61581920903954V28.38418079096045Q33.728813559322035 25.457627118644062 33.2542372881356 24.073446327683612Q32.779661016949156 22.689265536723163 31.395480225988702 22.17514124293785Q30.01129943502825 21.66101694915254 27.322033898305087 21.581920903954796V19.999999999999993Q28.983050847457626 20.079096045197737 31.672316384180792 20.158192090395477Q34.36158192090396 20.237288135593218 37.44632768361582 20.237288135593218Q40.21468926553672 20.237288135593218 42.943502824858754 20.158192090395477Q45.67231638418079 20.079096045197737 47.49152542372882 19.999999999999993Z M92.02259887005651 34.158192090395474Q98.98305084745763 34.158192090395474 102.89830508474577 38.389830508474574Q106.81355932203391 42.62146892655367 106.81355932203391 51.559322033898304H78.89265536723165L78.81355932203391 50.056497175141246H99.22033898305087Q99.37853107344634 46.18079096045197 98.58757062146894 42.89830508474576Q97.79661016949154 39.61581920903954 96.09604519774012 37.63841807909604Q94.3954802259887 35.66101694915254 91.70621468926555 35.66101694915254Q88.06779661016951 35.66101694915254 85.25988700564973 39.29943502824858Q82.45197740112995 42.93785310734463 81.89830508474577 50.847457627118644L82.13559322033899 51.163841807909606Q81.97740112994352 52.35028248587571 81.89830508474577 53.77401129943503Q81.81920903954804 55.19774011299435 81.81920903954804 56.621468926553675Q81.81920903954804 62.0 83.55932203389833 65.87570621468927Q85.2994350282486 69.75141242937853 88.10734463276837 71.76836158192091Q90.91525423728815 73.78531073446328 93.92090395480227 73.78531073446328Q96.29378531073448 73.78531073446328 98.42937853107347 73.03389830508475Q100.56497175141244 72.28248587570621 102.38418079096047 70.54237288135593Q104.20338983050848 68.80225988700565 105.54802259887006 65.87570621468926L107.12994350282487 66.50847457627118Q106.25988700564973 69.11864406779661 104.28248587570623 71.57062146892656Q102.30508474576273 74.0225988700565 99.29943502824861 75.56497175141243Q96.29378531073448 77.10734463276836 92.33898305084747 77.10734463276836Q86.64406779661019 77.10734463276836 82.57062146892656 74.49717514124293Q78.49717514124295 71.88700564971751 76.3220338983051 67.25988700564972Q74.14689265536724 62.632768361581924 74.14689265536724 56.621468926553675Q74.14689265536724 49.66101694915254 76.36158192090397 44.63841807909604Q78.57627118644069 39.61581920903954 82.61016949152544 36.88700564971751Q86.64406779661019 34.158192090395474 92.02259887005651 34.158192090395474Z M132.20338983050848 34.158192090395474Q137.26553672316385 34.158192090395474 141.29943502824858 36.37288135593219Q145.33333333333334 38.58757062146892 147.74576271186442 43.33333333333333Q150.1581920903955 48.07909604519774 150.1581920903955 55.67231638418079Q150.1581920903955 63.26553672316384 147.74576271186442 67.97175141242938Q145.33333333333334 72.67796610169492 141.29943502824858 74.89265536723164Q137.26553672316385 77.10734463276836 132.20338983050848 77.10734463276836Q127.22033898305087 77.10734463276836 123.14689265536725 74.89265536723164Q119.07344632768363 72.67796610169492 116.66101694915255 67.97175141242938Q114.24858757062148 63.26553672316384 114.24858757062148 55.67231638418079Q114.24858757062148 48.07909604519774 116.66101694915255 43.33333333333333Q119.07344632768363 38.58757062146892 123.14689265536725 36.37288135593219Q127.22033898305087 34.158192090395474 132.20338983050848 34.158192090395474ZM132.20338983050848 35.74011299435028Q127.6949152542373 35.74011299435028 124.80790960451978 40.40677966101694Q121.92090395480227 45.07344632768361 121.92090395480227 55.67231638418079Q121.92090395480227 66.27118644067797 124.80790960451978 70.89830508474577Q127.6949152542373 75.52542372881356 132.20338983050848 75.52542372881356Q136.71186440677968 75.52542372881356 139.5988700564972 70.89830508474577Q142.4858757062147 66.27118644067797 142.4858757062147 55.67231638418079Q142.4858757062147 45.07344632768361 139.5988700564972 40.40677966101694Q136.71186440677968 35.74011299435028 132.20338983050848 35.74011299435028Z M182.74576271186442 34.158192090395474Q185.75141242937855 34.158192090395474 187.7683615819209 34.94915254237287Q189.78531073446328 35.74011299435028 191.12994350282486 37.1638418079096Q192.63276836158192 38.7457627118644 193.26553672316385 41.11864406779661Q193.89830508474577 43.49152542372881 193.89830508474577 47.52542372881356V68.64406779661017Q193.89830508474577 71.96610169491525 195.28248587570624 73.15254237288136Q196.66666666666669 74.33898305084746 199.909604519774 74.33898305084746V76.0Q198.56497175141243 75.92090395480226 195.79661016949154 75.80225988700565Q193.02824858757063 75.68361581920904 190.4180790960452 75.68361581920904Q187.80790960451978 75.68361581920904 185.31638418079098 75.80225988700565Q182.82485875706215 75.92090395480226 181.55932203389833 76.0V74.33898305084746Q184.40677966101697 74.33898305084746 185.59322033898306 73.15254237288136Q186.77966101694915 71.96610169491525 186.77966101694915 68.64406779661017V45.78531073446327Q186.77966101694915 43.33333333333333 186.38418079096044 41.27683615819208Q185.98870056497177 39.220338983050844 184.6045197740113 37.954802259887Q183.22033898305085 36.68926553672316 180.3728813559322 36.68926553672316Q177.05084745762713 36.68926553672316 174.5593220338983 38.58757062146893Q172.0677966101695 40.485875706214685 170.68361581920905 43.7683615819209Q169.2994350282486 47.050847457627114 169.2994350282486 51.08474576271186V68.64406779661017Q169.2994350282486 71.96610169491525 170.4858757062147 73.15254237288136Q171.6723163841808 74.33898305084746 174.51977401129943 74.33898305084746V76.0Q173.2542372881356 75.92090395480226 170.7627118644068 75.80225988700565Q168.27118644067798 75.68361581920904 165.66101694915255 75.68361581920904Q163.05084745762713 75.68361581920904 160.28248587570624 75.80225988700565Q157.51412429378533 75.92090395480226 156.16949152542372 76.0V74.33898305084746Q159.41242937853107 74.33898305084746 160.79661016949154 73.15254237288136Q162.180790960452 71.96610169491525 162.180790960452 68.64406779661017V43.88700564971751Q162.180790960452 40.327683615819204 160.91525423728814 38.62711864406779Q159.6497175141243 36.92655367231638 156.16949152542372 36.92655367231638V35.26553672316384Q158.70056497175142 35.50282485875706 161.07344632768363 35.50282485875706Q163.36723163841808 35.50282485875706 165.4632768361582 35.22598870056497Q167.55932203389833 34.94915254237288 169.2994350282486 34.3954802259887V43.728813559322035Q171.35593220338984 38.3502824858757 175.03389830508476 36.254237288135585Q178.71186440677968 34.158192090395474 182.74576271186442 34.158192090395474Z M214.6214689265537 76.55367231638418Q211.37853107344634 76.55367231638418 209.00564971751413 75.32768361581921Q206.63276836158192 74.10169491525424 205.40677966101697 71.88700564971751Q204.180790960452 69.67231638418079 204.180790960452 66.7457627118644Q204.180790960452 63.26553672316384 205.80225988700568 61.050847457627114Q207.42372881355934 58.836158192090394 209.954802259887 57.49152542372881Q212.4858757062147 56.146892655367225 215.29378531073448 55.23728813559322Q218.10169491525426 54.32768361581921 220.63276836158195 53.497175141242934Q223.16384180790962 52.666666666666664 224.78531073446328 51.5593220338983Q226.40677966101697 50.45197740112994 226.40677966101697 48.63276836158192V43.728813559322035Q226.40677966101697 40.40677966101695 225.41807909604523 38.666666666666664Q224.42937853107347 36.92655367231638 222.76836158192094 36.33333333333333Q221.1073446327684 35.74011299435028 219.05084745762713 35.74011299435028Q217.07344632768363 35.74011299435028 214.819209039548 36.293785310734464Q212.56497175141243 36.847457627118644 211.22033898305085 38.58757062146892Q212.72316384180792 38.90395480225988 213.83050847457628 40.16949152542372Q214.93785310734464 41.43502824858757 214.93785310734464 43.41242937853107Q214.93785310734464 45.389830508474574 213.67231638418082 46.536723163841806Q212.40677966101697 47.68361581920904 210.42937853107347 47.68361581920904Q208.135593220339 47.68361581920904 207.0677966101695 46.220338983050844Q206.0 44.75706214689265 206.0 42.93785310734463Q206.0 40.881355932203384 207.02824858757063 39.61581920903954Q208.05649717514126 38.3502824858757 209.63841807909606 37.24293785310734Q211.45762711864407 35.9774011299435 214.34463276836158 35.06779661016949Q217.23163841807911 34.158192090395474 220.87005649717514 34.158192090395474Q224.1129943502825 34.158192090395474 226.40677966101697 34.90960451977401Q228.70056497175142 35.66101694915254 230.20338983050848 37.08474576271186Q232.25988700564972 38.983050847457626 232.89265536723164 41.711864406779654Q233.52542372881356 44.44067796610169 233.52542372881356 48.23728813559322V70.22598870056497Q233.52542372881356 72.20338983050847 234.11864406779662 73.07344632768361Q234.71186440677968 73.94350282485875 235.97740112994353 73.94350282485875Q236.84745762711867 73.94350282485875 237.63841807909608 73.54802259887006Q238.42937853107347 73.15254237288136 239.53672316384183 72.28248587570621L240.40677966101697 73.62711864406779Q238.74576271186442 74.89265536723164 237.24293785310735 75.72316384180792Q235.74011299435028 76.55367231638418 233.20903954802262 76.55367231638418Q230.91525423728814 76.55367231638418 229.4124293785311 75.76271186440678Q227.90960451977404 74.97175141242938 227.15819209039552 73.42937853107344Q226.40677966101697 71.88700564971751 226.40677966101697 69.51412429378531Q224.27118644067798 73.07344632768361 221.3050847457627 74.8135593220339Q218.33898305084747 76.55367231638418 214.6214689265537 76.55367231638418ZM217.46892655367233 73.38983050847457Q220.07909604519776 73.38983050847457 222.33333333333337 71.88700564971751Q224.58757062146896 70.38418079096046 226.40677966101697 67.37853107344633V51.87570621468926Q225.4576271186441 53.220338983050844 223.63841807909608 54.12994350282486Q221.81920903954804 55.039548022598865 219.68361581920905 55.94915254237288Q217.54802259887006 56.85875706214689 215.61016949152543 58.08474576271186Q213.67231638418082 59.31073446327683 212.40677966101697 61.28813559322033Q211.14124293785312 63.26553672316384 211.14124293785312 66.42937853107344Q211.14124293785312 69.59322033898304 212.84180790960454 71.4915254237288Q214.54237288135596 73.38983050847457 217.46892655367233 73.38983050847457Z M267.3785310734463 34.158192090395474Q269.5141242937853 34.158192090395474 271.135593220339 35.028248587570616Q272.7570621468927 35.89830508474576 273.6666666666667 37.282485875706215Q274.5762711864407 38.666666666666664 274.5762711864407 40.40677966101695Q274.5762711864407 42.38418079096045 273.3502824858757 43.88700564971751Q272.1242937853107 45.389830508474574 270.0677966101695 45.389830508474574Q268.40677966101697 45.389830508474574 267.1412429378531 44.32203389830508Q265.8757062146893 43.25423728813559 265.8757062146893 41.27683615819209Q265.8757062146893 39.774011299435024 266.70621468926555 38.706214689265536Q267.5367231638418 37.63841807909604 268.56497175141243 37.00564971751412Q268.01129943502826 36.21468926553672 266.9039548022599 36.21468926553672Q264.45197740112997 36.21468926553672 262.3954802259887 37.67796610169491Q260.33898305084745 39.14124293785311 258.91525423728814 41.43502824858757Q257.49152542372883 43.728813559322035 256.7005649717514 46.29943502824859Q255.90960451977404 48.87005649717514 255.90960451977404 51.08474576271186V67.85310734463278Q255.90960451977404 71.72881355932203 258.16384180790965 73.03389830508475Q260.41807909604523 74.33898305084746 264.29378531073445 74.33898305084746V76.0Q262.47457627118644 75.92090395480226 259.1525423728814 75.80225988700565Q255.83050847457628 75.68361581920904 252.1129943502825 75.68361581920904Q249.42372881355934 75.68361581920904 246.77401129943505 75.80225988700565Q244.12429378531075 75.92090395480226 242.77966101694915 76.0V74.33898305084746Q246.0225988700565 74.33898305084746 247.40677966101697 73.15254237288136Q248.7909604519774 71.96610169491525 248.7909604519774 68.64406779661017V43.88700564971751Q248.7909604519774 40.327683615819204 247.52542372881356 38.62711864406779Q246.25988700564972 36.92655367231638 242.77966101694915 36.92655367231638V35.26553672316384Q245.31073446327684 35.50282485875706 247.68361581920905 35.50282485875706Q249.9774011299435 35.50282485875706 252.07344632768363 35.22598870056497Q254.16949152542375 34.94915254237288 255.90960451977404 34.3954802259887V44.282485875706215Q256.77966101694915 41.98870056497175 258.40112994350284 39.655367231638415Q260.0225988700565 37.32203389830508 262.316384180791 35.74011299435028Q264.6101694915254 34.158192090395474 267.3785310734463 34.158192090395474Z M313.9661016949153 13.988700564971744V67.37853107344633Q313.9661016949153 70.93785310734464 315.27118644067804 72.63841807909606Q316.57627118644075 74.33898305084746 319.97740112994353 74.33898305084746V76.0Q317.5254237288136 75.76271186440678 315.07344632768365 75.76271186440678Q312.7796610169492 75.76271186440678 310.6836158192091 76.0Q308.58757062146896 76.23728813559322 306.8474576271187 76.87005649717514V23.48022598870056Q306.8474576271187 19.920903954802256 305.5819209039548 18.220338983050844Q304.31638418079103 16.519774011299432 300.83615819209047 16.519774011299432V14.858757062146886Q303.3672316384181 15.09604519774011 305.74011299435034 15.09604519774011Q308.0338983050848 15.09604519774011 310.1299435028249 14.819209039548017Q312.22598870056504 14.542372881355924 313.9661016949153 13.988700564971744ZM297.3559322033899 34.158192090395474Q300.83615819209047 34.158192090395474 303.8813559322034 35.819209039548014Q306.9265536723164 37.48022598870056 307.95480225988706 41.51412429378531L306.9265536723164 42.305084745762706Q305.81920903954807 38.983050847457626 303.48587570621476 37.48022598870057Q301.1525423728814 35.9774011299435 297.9887005649718 35.9774011299435Q293.3220338983051 35.9774011299435 290.1977401129944 40.80225988700565Q287.07344632768365 45.62711864406779 287.1525423728814 55.67231638418079Q287.1525423728814 62.07909604519774 288.37853107344637 66.31073446327683Q289.60451977401135 70.54237288135593 292.01694915254245 72.63841807909604Q294.4293785310735 74.73446327683615 297.90960451977406 74.73446327683615Q301.2316384180791 74.73446327683615 303.92090395480227 71.88700564971751Q306.6101694915255 69.03954802259886 307.16384180790965 63.50282485875706L308.1129943502825 64.61016949152543Q307.4802259887006 70.62146892655367 304.27683615819217 73.86440677966101Q301.07344632768365 77.10734463276836 295.6158192090396 77.10734463276836Q290.7118644067797 77.10734463276836 287.0338983050848 74.73446327683615Q283.3559322033899 72.36158192090396 281.4180790960453 67.61581920903956Q279.4802259887006 62.87005649717514 279.4802259887006 55.67231638418079Q279.4802259887006 48.474576271186436 281.9717514124294 43.689265536723155Q284.46327683615823 38.90395480225988 288.5367231638419 36.53107344632768Q292.6101694915255 34.158192090395474 297.3559322033899 34.158192090395474Z M343.3107344632769 34.158192090395474Q348.37288135593224 34.158192090395474 352.406779661017 36.37288135593219Q356.44067796610176 38.58757062146892 358.8531073446328 43.33333333333333Q361.2655367231639 48.07909604519774 361.2655367231639 55.67231638418079Q361.2655367231639 63.26553672316384 358.8531073446328 67.97175141242938Q356.44067796610176 72.67796610169492 352.406779661017 74.89265536723164Q348.37288135593224 77.10734463276836 343.3107344632769 77.10734463276836Q338.32768361581924 77.10734463276836 334.25423728813564 74.89265536723164Q330.18079096045204 72.67796610169492 327.768361581921 67.97175141242938Q325.3559322033899 63.26553672316384 325.3559322033899 55.67231638418079Q325.3559322033899 48.07909604519774 327.768361581921 43.33333333333333Q330.18079096045204 38.58757062146892 334.25423728813564 36.37288135593219Q338.32768361581924 34.158192090395474 343.3107344632769 34.158192090395474ZM343.3107344632769 35.74011299435028Q338.8022598870057 35.74011299435028 335.9152542372882 40.40677966101694Q333.02824858757066 45.07344632768361 333.02824858757066 55.67231638418079Q333.02824858757066 66.27118644067797 335.9152542372882 70.89830508474577Q338.8022598870057 75.52542372881356 343.3107344632769 75.52542372881356Q347.81920903954807 75.52542372881356 350.7062146892656 70.89830508474577Q353.5932203389831 66.27118644067797 353.5932203389831 55.67231638418079Q353.5932203389831 45.07344632768361 350.7062146892656 40.40677966101694Q347.81920903954807 35.74011299435028 343.3107344632769 35.74011299435028Z M398.28248587570624 18.892655367231633Q403.5028248587571 18.892655367231633 406.86440677966107 20.435028248587567Q410.225988700565 21.9774011299435 412.8361581920904 24.03389830508474Q414.41807909604523 25.220338983050844 415.2485875706215 24.310734463276834Q416.0790960451978 23.401129943502823 416.39548022598876 19.999999999999993H418.2146892655368Q418.05649717514126 22.92655367231638 417.97740112994353 27.118644067796605Q417.8983050847458 31.31073446327683 417.8983050847458 38.19209039548022H416.0790960451978Q415.5254237288136 34.7909604519774 415.0508474576271 32.774011299435024Q414.5762711864407 30.75706214689265 413.90395480225993 29.33333333333333Q413.2316384180791 27.909604519774007 412.1242937853108 26.485875706214685Q409.6723163841808 23.242937853107343 405.95480225988706 21.77966101694915Q402.23728813559325 20.316384180790955 398.1242937853108 20.316384180790955Q394.2485875706215 20.316384180790955 391.1242937853108 22.254237288135588Q388.00000000000006 24.19209039548022 385.7457627118645 27.830508474576266Q383.49152542372883 31.46892655367231 382.2655367231639 36.61016949152542Q381.0395480225989 41.751412429378526 381.0395480225989 48.158192090395474Q381.0395480225989 54.80225988700565 382.3841807909605 59.90395480225988Q383.7288135593221 65.00564971751412 386.1412429378531 68.48587570621469Q388.5536723163842 71.96610169491525 391.83615819209047 73.74576271186442Q395.11864406779665 75.52542372881356 398.9152542372882 75.52542372881356Q402.4745762711865 75.52542372881356 406.3502824858757 74.10169491525424Q410.225988700565 72.67796610169492 412.4406779661017 69.51412429378531Q414.180790960452 67.22033898305085 414.8531073446328 64.53107344632768Q415.5254237288136 61.84180790960452 416.0790960451978 57.01694915254237H417.8983050847458Q417.8983050847458 64.21468926553672 417.97740112994353 68.6045197740113Q418.05649717514126 72.99435028248587 418.2146892655368 76.0H416.39548022598876Q416.0790960451978 72.59887005649718 415.32768361581924 71.72881355932203Q414.5762711864407 70.85875706214689 412.8361581920904 71.96610169491525Q409.90960451977406 74.0225988700565 406.6271186440679 75.56497175141243Q403.34463276836163 77.10734463276836 398.2033898305085 77.10734463276836Q390.6892655367232 77.10734463276836 385.0338983050848 73.70621468926554Q379.37853107344637 70.30508474576271 376.25423728813564 63.898305084745765Q373.1299435028249 57.49152542372882 373.1299435028249 48.474576271186436Q373.1299435028249 39.61581920903954 376.37288135593224 32.97175141242937Q379.61581920903956 26.327683615819204 385.271186440678 22.61016949152542Q390.9265536723164 18.892655367231633 398.28248587570624 18.892655367231633Z M436.88135593220346 76.55367231638418Q433.63841807909614 76.55367231638418 431.2655367231639 75.32768361581921Q428.8926553672317 74.10169491525424 427.66666666666674 71.88700564971751Q426.44067796610176 69.67231638418079 426.44067796610176 66.7457627118644Q426.44067796610176 63.26553672316384 428.0621468926554 61.050847457627114Q429.6836158192091 58.836158192090394 432.2146892655368 57.49152542372881Q434.7457627118645 56.146892655367225 437.5536723163842 55.23728813559322Q440.36158192090403 54.32768361581921 442.89265536723167 53.497175141242934Q445.42372881355936 52.666666666666664 447.04519774011305 51.5593220338983Q448.66666666666674 50.45197740112994 448.66666666666674 48.63276836158192V43.728813559322035Q448.66666666666674 40.40677966101695 447.677966101695 38.666666666666664Q446.6892655367232 36.92655367231638 445.0282485875707 36.33333333333333Q443.36723163841816 35.74011299435028 441.3107344632769 35.74011299435028Q439.3333333333334 35.74011299435028 437.07909604519784 36.293785310734464Q434.8248587570622 36.847457627118644 433.4802259887006 38.58757062146892Q434.9830508474577 38.90395480225988 436.0903954802261 40.16949152542372Q437.19774011299444 41.43502824858757 437.19774011299444 43.41242937853107Q437.19774011299444 45.389830508474574 435.9322033898306 46.536723163841806Q434.66666666666674 47.68361581920904 432.6892655367232 47.68361581920904Q430.39548022598876 47.68361581920904 429.3276836158193 46.220338983050844Q428.2598870056498 44.75706214689265 428.2598870056498 42.93785310734463Q428.2598870056498 40.881355932203384 429.28813559322043 39.61581920903954Q430.31638418079103 38.3502824858757 431.89830508474586 37.24293785310734Q433.71751412429387 35.9774011299435 436.60451977401135 35.06779661016949Q439.4915254237289 34.158192090395474 443.1299435028249 34.158192090395474Q446.3728813559323 34.158192090395474 448.66666666666674 34.90960451977401Q450.9604519774012 35.66101694915254 452.4632768361583 37.08474576271186Q454.5197740112995 38.983050847457626 455.1525423728814 41.711864406779654Q455.78531073446334 44.44067796610169 455.78531073446334 48.23728813559322V70.22598870056497Q455.78531073446334 72.20338983050847 456.3785310734464 73.07344632768361Q456.97175141242946 73.94350282485875 458.2372881355933 73.94350282485875Q459.10734463276845 73.94350282485875 459.89830508474586 73.54802259887006Q460.6892655367232 73.15254237288136 461.7966101694916 72.28248587570621L462.66666666666674 73.62711864406779Q461.0056497175142 74.89265536723164 459.5028248587571 75.72316384180792Q458.00000000000006 76.55367231638418 455.4689265536724 76.55367231638418Q453.1751412429379 76.55367231638418 451.6723163841808 75.76271186440678Q450.1694915254238 74.97175141242938 449.4180790960453 73.42937853107344Q448.66666666666674 71.88700564971751 448.66666666666674 69.51412429378531Q446.53107344632775 73.07344632768361 443.5649717514125 74.8135593220339Q440.5988700564972 76.55367231638418 436.88135593220346 76.55367231638418ZM439.7288135593221 73.38983050847457Q442.3389830508475 73.38983050847457 444.5932203389831 71.88700564971751Q446.84745762711873 70.38418079096046 448.66666666666674 67.37853107344633V51.87570621468926Q447.71751412429387 53.220338983050844 445.89830508474586 54.12994350282486Q444.0790960451978 55.039548022598865 441.9435028248588 55.94915254237288Q439.80790960451986 56.85875706214689 437.87005649717526 58.08474576271186Q435.9322033898306 59.31073446327683 434.66666666666674 61.28813559322033Q433.4011299435029 63.26553672316384 433.4011299435029 66.42937853107344Q433.4011299435029 69.59322033898304 435.1016949152543 71.4915254237288Q436.80225988700573 73.38983050847457 439.7288135593221 73.38983050847457Z M491.1412429378532 34.158192090395474Q493.90960451977406 34.158192090395474 495.9661016949153 34.94915254237287Q498.0225988700566 35.74011299435028 499.36723163841816 37.1638418079096Q500.8700564971752 38.7457627118644 501.42372881355936 41.27683615819208Q501.9774011299436 43.80790960451977 501.9774011299436 47.52542372881356V68.64406779661017Q501.9774011299436 71.96610169491525 503.36158192090403 73.15254237288136Q504.7457627118645 74.33898305084746 507.98870056497185 74.33898305084746V76.0Q506.6440677966102 75.92090395480226 503.87570621468933 75.80225988700565Q501.10734463276845 75.68361581920904 498.497175141243 75.68361581920904Q495.8870056497176 75.68361581920904 493.39548022598876 75.80225988700565Q490.90395480225993 75.92090395480226 489.63841807909614 76.0V74.33898305084746Q492.48587570621476 74.33898305084746 493.6723163841809 73.15254237288136Q494.858757062147 71.96610169491525 494.858757062147 68.64406779661017V45.78531073446327Q494.858757062147 43.33333333333333 494.542372881356 41.27683615819208Q494.22598870056504 39.220338983050844 492.9604519774012 37.954802259887Q491.69491525423734 36.68926553672316 488.84745762711873 36.68926553672316Q485.76271186440687 36.68926553672316 483.3502824858758 38.58757062146893Q480.9378531073447 40.485875706214685 479.5536723163842 43.7683615819209Q478.1694915254238 47.050847457627114 478.1694915254238 51.08474576271186V68.64406779661017Q478.1694915254238 71.96610169491525 479.3559322033899 73.15254237288136Q480.542372881356 74.33898305084746 483.38983050847463 74.33898305084746V76.0Q482.1242937853108 75.92090395480226 479.63276836158195 75.80225988700565Q477.1412429378532 75.68361581920904 474.53107344632775 75.68361581920904Q471.9209039548023 75.68361581920904 469.1525423728814 75.80225988700565Q466.3841807909605 75.92090395480226 465.0395480225989 76.0V74.33898305084746Q468.2824858757063 74.33898305084746 469.66666666666674 73.15254237288136Q471.0508474576272 71.96610169491525 471.0508474576272 68.64406779661017V43.88700564971751Q471.0508474576272 40.327683615819204 469.78531073446334 38.62711864406779Q468.5197740112995 36.92655367231638 465.0395480225989 36.92655367231638V35.26553672316384Q467.5706214689266 35.50282485875706 469.9435028248588 35.50282485875706Q472.2372881355933 35.50282485875706 474.33333333333337 35.22598870056497Q476.4293785310735 34.94915254237288 478.1694915254238 34.3954802259887V43.728813559322035Q480.22598870056504 38.58757062146892 483.78531073446334 36.37288135593219Q487.34463276836163 34.158192090395474 491.1412429378532 34.158192090395474ZM514.949152542373 34.158192090395474Q517.7175141242939 34.158192090395474 519.7740112994352 34.94915254237287Q521.8305084745764 35.74011299435028 523.1751412429379 37.1638418079096Q524.677966101695 38.7457627118644 525.2316384180792 41.27683615819208Q525.7853107344633 43.80790960451977 525.7853107344633 47.52542372881356V68.64406779661017Q525.7853107344633 71.96610169491525 527.1694915254238 73.15254237288136Q528.5536723163842 74.33898305084746 531.7966101694916 74.33898305084746V76.0Q530.45197740113 75.92090395480226 527.6836158192091 75.80225988700565Q524.9152542372882 75.68361581920904 522.3050847457628 75.68361581920904Q519.6949152542373 75.68361581920904 517.2033898305085 75.80225988700565Q514.7118644067797 75.92090395480226 513.4463276836159 76.0V74.33898305084746Q516.2937853107345 74.33898305084746 517.4802259887006 73.15254237288136Q518.6666666666667 71.96610169491525 518.6666666666667 68.64406779661017V45.78531073446327Q518.6666666666667 43.33333333333333 518.3502824858758 41.27683615819208Q518.0338983050848 39.220338983050844 516.768361581921 37.954802259887Q515.5028248587571 36.68926553672316 512.6553672316385 36.68926553672316Q509.5706214689266 36.68926553672316 507.1581920903956 38.58757062146893Q504.7457627118645 40.485875706214685 503.36158192090403 43.728813559322035Q501.9774011299436 46.97175141242938 501.9774011299436 51.00564971751412L501.74011299435034 43.64971751412429Q503.87570621468933 38.19209039548022 507.51412429378536 36.17514124293785Q511.15254237288144 34.158192090395474 514.949152542373 34.158192090395474Z M546.5084745762712 76.55367231638418Q543.2655367231639 76.55367231638418 540.8926553672317 75.32768361581921Q538.5197740112994 74.10169491525424 537.2937853107345 71.88700564971751Q536.0677966101696 69.67231638418079 536.0677966101696 66.7457627118644Q536.0677966101696 63.26553672316384 537.6892655367233 61.050847457627114Q539.3107344632768 58.836158192090394 541.8418079096045 57.49152542372881Q544.3728813559322 56.146892655367225 547.180790960452 55.23728813559322Q549.9887005649717 54.32768361581921 552.5197740112994 53.497175141242934Q555.0508474576271 52.666666666666664 556.6723163841808 51.5593220338983Q558.2937853107345 50.45197740112994 558.2937853107345 48.63276836158192V43.728813559322035Q558.2937853107345 40.40677966101695 557.3050847457628 38.666666666666664Q556.316384180791 36.92655367231638 554.6553672316385 36.33333333333333Q552.9943502824859 35.74011299435028 550.9378531073447 35.74011299435028Q548.9604519774011 35.74011299435028 546.7062146892656 36.293785310734464Q544.45197740113 36.847457627118644 543.1073446327684 38.58757062146892Q544.6101694915254 38.90395480225988 545.7175141242938 40.16949152542372Q546.8248587570622 41.43502824858757 546.8248587570622 43.41242937853107Q546.8248587570622 45.389830508474574 545.5593220338983 46.536723163841806Q544.2937853107345 47.68361581920904 542.316384180791 47.68361581920904Q540.0225988700565 47.68361581920904 538.9548022598871 46.220338983050844Q537.8870056497176 44.75706214689265 537.8870056497176 42.93785310734463Q537.8870056497176 40.881355932203384 538.9152542372882 39.61581920903954Q539.9435028248588 38.3502824858757 541.5254237288136 37.24293785310734Q543.3446327683616 35.9774011299435 546.2316384180791 35.06779661016949Q549.1186440677966 34.158192090395474 552.7570621468927 34.158192090395474Q556.0 34.158192090395474 558.2937853107345 34.90960451977401Q560.587570621469 35.66101694915254 562.090395480226 37.08474576271186Q564.1468926553673 38.983050847457626 564.7796610169491 41.711864406779654Q565.4124293785311 44.44067796610169 565.4124293785311 48.23728813559322V70.22598870056497Q565.4124293785311 72.20338983050847 566.0056497175142 73.07344632768361Q566.5988700564972 73.94350282485875 567.8644067796611 73.94350282485875Q568.7344632768362 73.94350282485875 569.5254237288136 73.54802259887006Q570.316384180791 73.15254237288136 571.4237288135594 72.28248587570621L572.2937853107345 73.62711864406779Q570.632768361582 74.89265536723164 569.129943502825 75.72316384180792Q567.6271186440679 76.55367231638418 565.0960451977402 76.55367231638418Q562.8022598870057 76.55367231638418 561.2994350282486 75.76271186440678Q559.7966101694916 74.97175141242938 559.045197740113 73.42937853107344Q558.2937853107345 71.88700564971751 558.2937853107345 69.51412429378531Q556.1581920903955 73.07344632768361 553.1920903954802 74.8135593220339Q550.225988700565 76.55367231638418 546.5084745762712 76.55367231638418ZM549.3559322033899 73.38983050847457Q551.9661016949153 73.38983050847457 554.2203389830509 71.88700564971751Q556.4745762711865 70.38418079096046 558.2937853107345 67.37853107344633V51.87570621468926Q557.3446327683616 53.220338983050844 555.5254237288136 54.12994350282486Q553.7062146892656 55.039548022598865 551.5706214689267 55.94915254237288Q549.4350282485876 56.85875706214689 547.4971751412429 58.08474576271186Q545.5593220338983 59.31073446327683 544.2937853107344 61.28813559322033Q543.0282485875706 63.26553672316384 543.0282485875706 66.42937853107344Q543.0282485875706 69.59322033898304 544.728813559322 71.4915254237288Q546.4293785310734 73.38983050847457 549.3559322033899 73.38983050847457Z M594.4406779661017 34.158192090395474Q596.9717514124294 34.158192090395474 599.3446327683616 34.7909604519774Q601.7175141242939 35.42372881355932 603.6158192090396 36.68926553672316Q605.4350282485876 37.87570621468926 606.3841807909605 39.41807909604519Q607.3333333333334 40.96045197740113 607.3333333333334 42.77966101694915Q607.3333333333334 44.91525423728813 606.1468926553673 46.06214689265536Q604.9604519774011 47.209039548022595 603.1412429378531 47.209039548022595Q601.4011299435028 47.209039548022595 600.0960451977401 46.18079096045197Q598.7909604519774 45.152542372881356 598.7909604519774 43.25423728813559Q598.7909604519774 41.43502824858757 599.7796610169491 40.32768361581921Q600.7683615819209 39.220338983050844 602.1129943502825 38.90395480225988Q601.3220338983051 37.48022598870056 599.3050847457628 36.53107344632768Q597.2881355932204 35.581920903954796 594.9943502824859 35.581920903954796Q593.0169491525425 35.581920903954796 591.0395480225989 36.53107344632768Q589.0621468926554 37.48022598870056 587.4011299435028 39.655367231638415Q585.7401129943503 41.83050847457627 584.7118644067797 45.58757062146893Q583.6836158192091 49.34463276836158 583.6836158192091 54.96045197740113Q583.6836158192091 61.920903954802256 585.2655367231639 66.03389830508473Q586.8474576271187 70.14689265536722 589.4180790960452 71.92655367231637Q591.9887005649717 73.70621468926554 595.0734463276837 73.70621468926554Q597.1299435028249 73.70621468926554 599.2655367231639 72.91525423728814Q601.4011299435028 72.12429378531074 603.2994350282486 70.34463276836158Q605.1977401129944 68.56497175141243 606.542372881356 65.5593220338983L608.045197740113 66.11299435028249Q607.2542372881356 68.64406779661017 605.4350282485876 71.21468926553672Q603.6158192090396 73.78531073446328 600.6892655367233 75.44632768361582Q597.7627118644068 77.10734463276836 593.4915254237288 77.10734463276836Q588.587570621469 77.10734463276836 584.632768361582 74.57627118644068Q580.6779661016949 72.045197740113 578.3446327683616 67.33898305084746Q576.0112994350283 62.632768361581924 576.0112994350283 56.146892655367225Q576.0112994350283 49.66101694915254 578.3446327683616 44.717514124293785Q580.6779661016949 39.774011299435024 584.8700564971751 36.96610169491525Q589.0621468926554 34.158192090395474 594.4406779661017 34.158192090395474Z M625.5254237288136 14.067796610169488V43.64971751412429Q627.5819209039548 38.271186440677965 631.2598870056497 36.21468926553672Q634.9378531073447 34.158192090395474 638.9717514124294 34.158192090395474Q641.9774011299436 34.158192090395474 643.9943502824859 34.94915254237287Q646.0112994350283 35.74011299435028 647.3559322033899 37.1638418079096Q648.8587570621469 38.7457627118644 649.4915254237288 41.11864406779661Q650.1242937853108 43.49152542372881 650.1242937853108 47.52542372881356V68.64406779661017Q650.1242937853108 71.96610169491525 651.5084745762713 73.15254237288136Q652.8926553672317 74.33898305084746 656.135593220339 74.33898305084746V76.0Q654.7909604519774 75.92090395480226 652.0225988700565 75.80225988700565Q649.2542372881356 75.68361581920904 646.6440677966102 75.68361581920904Q644.0338983050848 75.68361581920904 641.542372881356 75.80225988700565Q639.0508474576271 75.92090395480226 637.7853107344633 76.0V74.33898305084746Q640.632768361582 74.33898305084746 641.819209039548 73.15254237288136Q643.0056497175142 71.96610169491525 643.0056497175142 68.64406779661017V45.78531073446327Q643.0056497175142 43.33333333333333 642.6101694915255 41.27683615819208Q642.2146892655368 39.220338983050844 640.8305084745764 37.954802259887Q639.4463276836159 36.68926553672316 636.5988700564972 36.68926553672316Q633.3559322033899 36.68926553672316 630.8644067796611 38.50847457627118Q628.3728813559322 40.327683615819204 626.949152542373 43.57062146892655Q625.5254237288136 46.813559322033896 625.5254237288136 51.00564971751412V68.64406779661017Q625.5254237288136 71.96610169491525 626.7118644067798 73.15254237288136Q627.8983050847459 74.33898305084746 630.7457627118645 74.33898305084746V76.0Q629.4802259887006 75.92090395480226 626.9887005649719 75.80225988700565Q624.497175141243 75.68361581920904 621.8870056497176 75.68361581920904Q619.2768361581922 75.68361581920904 616.5084745762713 75.80225988700565Q613.7401129943503 75.92090395480226 612.3954802259888 76.0V74.33898305084746Q615.6384180790961 74.33898305084746 617.0225988700565 73.15254237288136Q618.406779661017 71.96610169491525 618.406779661017 68.64406779661017V23.559322033898297Q618.406779661017 19.999999999999993 617.1412429378531 18.29943502824858Q615.8757062146893 16.59887005649717 612.3954802259888 16.59887005649717V14.93785310734463Q614.9265536723165 15.175141242937848 617.2994350282486 15.175141242937848Q619.5932203389831 15.175141242937848 621.6892655367233 14.898305084745758Q623.7853107344633 14.621468926553668 625.5254237288136 14.067796610169488Z M678.9943502824859 34.158192090395474Q684.0564971751413 34.158192090395474 688.0903954802261 36.37288135593219Q692.1242937853108 38.58757062146892 694.5367231638418 43.33333333333333Q696.9491525423729 48.07909604519774 696.9491525423729 55.67231638418079Q696.9491525423729 63.26553672316384 694.5367231638418 67.97175141242938Q692.1242937853108 72.67796610169492 688.0903954802261 74.89265536723164Q684.0564971751413 77.10734463276836 678.9943502824859 77.10734463276836Q674.0112994350283 77.10734463276836 669.9378531073446 74.89265536723164Q665.8644067796611 72.67796610169492 663.45197740113 67.97175141242938Q661.0395480225989 63.26553672316384 661.0395480225989 55.67231638418079Q661.0395480225989 48.07909604519774 663.45197740113 43.33333333333333Q665.8644067796611 38.58757062146892 669.9378531073446 36.37288135593219Q674.0112994350283 34.158192090395474 678.9943502824859 34.158192090395474ZM678.9943502824859 35.74011299435028Q674.4858757062148 35.74011299435028 671.5988700564972 40.40677966101694Q668.7118644067797 45.07344632768361 668.7118644067797 55.67231638418079Q668.7118644067797 66.27118644067797 671.5988700564972 70.89830508474577Q674.4858757062148 75.52542372881356 678.9943502824859 75.52542372881356Q683.5028248587571 75.52542372881356 686.3898305084747 70.89830508474577Q689.2768361581922 66.27118644067797 689.2768361581922 55.67231638418079Q689.2768361581922 45.07344632768361 686.3898305084747 40.40677966101694Q683.5028248587571 35.74011299435028 678.9943502824859 35.74011299435028Z" fill="#1A1710"/></svg>